# xmcd
#
# Track frame offsets:
#	150
#	21630
#	42442
#	64197
#	84257
#	104075
#	124877
#	145935
#	165455
#	185097
#	205790
#
# Disc length: 3026 seconds
#
# Revision: 4
# Processed by: cddbd v1.5.2PL0 Copyright (c) Steve Scherf et al.
# Submitted via: EasyCDDAExtractor 15.3.0.1
#
DISCID=a20bd00b
DTITLE=Gisselle Y Sergio Vargas - Juntos
DYEAR=1998
DGENRE=Latin
TTITLE0=Gisselle - Lo Quiero A Morir
TTITLE1=Sergio Vargas - Siempre Que Pasa El Amor
TTITLE2=Gisselle Y Sergio Vargas - Contaminame
TTITLE3=Gisselle - La Pastilla
TTITLE4=Sergio Vargas - A Que Vuelve
TTITLE5=Gisselle Y Sergio Vargas - Apaga La Luz
TTITLE6=Gisselle - Ni Tu Ni Yo
TTITLE7=Sergio Vargas - No Es Mejor Que Yo
TTITLE8=Gisselle Y Sergio Vargas - Para Decir Adios
TTITLE9=Gisselle Y Sergio Vargas - Corazon Encadenado
TTITLE10=Gisselle Y Sergio Vargas - Perdoname, Olvidalo
EXTD=
EXTT0=
EXTT1=
EXTT2=
EXTT3=
EXTT4=
EXTT5=
EXTT6=
EXTT7=
EXTT8=
EXTT9=
EXTT10=
PLAYORDER=
